<svg width="124" height="36" viewBox="0 0 124 36" fill="none" xmlns="http://www.w3.org/2000/svg">
<g clip-path="url(#clip0_2190_29434)">
<rect width="36" height="36" rx="10" fill="#FB523B"/>
<path d="M34.9389 0C34.9389 0 34.9389 0 34.9389 0L1.06108 0C0.779662 0 0.509773 0.111792 0.310782 0.310782C0.111792 0.509773 0 0.779662 0 1.06108L0 34.9389C0 35.2203 0.111792 35.4902 0.310782 35.6892C0.509773 35.8882 0.779662 36 1.06108 36H34.9389C35.2203 36 35.4902 35.8882 35.6892 35.6892C35.8882 35.4902 36 35.2203 36 34.9389V1.06108C36 0.779662 35.8882 0.509773 35.6892 0.310782C35.4902 0.111792 35.2203 0 34.9389 0C34.9389 0 34.9389 0 34.9389 0Z" fill="#FB523B"/>
<path fill-rule="evenodd" clip-rule="evenodd" d="M23.8113 10H26.1863C26.4969 10 26.7488 10.2518 26.7488 10.5625V25.4375C26.7488 25.7482 26.4969 26 26.1863 26H23.8113C23.5006 26 23.2488 25.7482 23.2488 25.4375V10.5625C23.2488 10.2518 23.5006 10 23.8113 10ZM19.1863 15.001H16.8113C16.5006 15.001 16.2488 15.2528 16.2488 15.5635V25.4385C16.2488 25.7492 16.5006 26.001 16.8113 26.001H19.1863C19.4969 26.001 19.7488 25.7492 19.7488 25.4385V15.5635C19.7488 15.2528 19.4969 15.001 19.1863 15.001ZM9.24879 25.4323C9.24879 25.7426 9.50003 25.9943 9.8103 25.9948L12.1853 25.999C12.4963 25.9996 12.7488 25.7476 12.7488 25.4365V19.5646C12.7488 19.2541 12.4972 19.0023 12.1867 19.0021L9.81169 19.0004C9.50088 19.0002 9.24879 19.2521 9.24879 19.5629V25.4323Z" fill="white"/>
</g>
<path d="M48.236 26.1762C47.356 26.1762 46.5713 26.0222 45.882 25.7142C45.2073 25.3915 44.672 24.9442 44.276 24.3722C43.88 23.7855 43.66 23.0962 43.616 22.3042H46.08C46.1387 22.8322 46.3587 23.2502 46.74 23.5582C47.136 23.8662 47.6347 24.0202 48.236 24.0202C48.7493 24.0202 49.1673 23.9102 49.49 23.6902C49.8127 23.4555 49.974 23.1695 49.974 22.8322C49.974 22.4948 49.8787 22.2382 49.688 22.0622C49.4973 21.8715 49.248 21.7395 48.94 21.6662C48.6467 21.5782 48.236 21.4902 47.708 21.4022C46.916 21.2848 46.2633 21.1382 45.75 20.9622C45.2513 20.7715 44.8187 20.4488 44.452 19.9942C44.1 19.5395 43.924 18.8868 43.924 18.0362C43.924 17.3908 44.0927 16.8188 44.43 16.3202C44.782 15.8215 45.2587 15.4328 45.86 15.1542C46.4613 14.8755 47.136 14.7362 47.884 14.7362C48.7493 14.7362 49.512 14.8828 50.172 15.1762C50.8467 15.4695 51.3747 15.8875 51.756 16.4302C52.1373 16.9728 52.35 17.6035 52.394 18.3222H49.908C49.8493 17.8235 49.6293 17.4422 49.248 17.1782C48.8667 16.8995 48.434 16.7602 47.95 16.7602C47.466 16.7602 47.0773 16.8702 46.784 17.0902C46.5053 17.2955 46.366 17.5815 46.366 17.9482C46.366 18.2562 46.4613 18.4982 46.652 18.6742C46.8427 18.8355 47.0847 18.9528 47.378 19.0262C47.6713 19.0848 48.0747 19.1582 48.588 19.2462C49.3947 19.3488 50.0547 19.4882 50.568 19.6642C51.096 19.8255 51.5507 20.1482 51.932 20.6322C52.3133 21.1015 52.504 21.7982 52.504 22.7222C52.504 23.4115 52.328 24.0202 51.976 24.5482C51.624 25.0762 51.1253 25.4795 50.48 25.7582C49.8347 26.0368 49.0867 26.1762 48.236 26.1762Z" fill="#FB523B"/>
<path d="M59.406 26.1762C58.2327 26.1762 57.2207 25.9048 56.37 25.3622C55.5194 24.8195 54.8667 24.1082 54.412 23.2282C53.972 22.3482 53.752 21.4095 53.752 20.4122C53.752 19.4002 53.9574 18.4688 54.368 17.6182C54.7934 16.7528 55.4094 16.0562 56.216 15.5282C57.0374 15.0002 58.0274 14.7362 59.186 14.7362C60.3594 14.7362 61.3494 14.9928 62.156 15.5062C62.9774 16.0048 63.5787 16.6648 63.96 17.4862C64.356 18.2928 64.554 19.1582 64.554 20.0822C64.554 20.3902 64.5394 20.6982 64.51 21.0062H55.314V19.2242H61.87C61.826 18.4908 61.562 17.8968 61.078 17.4422C60.594 16.9875 59.9634 16.7602 59.186 16.7602C58.57 16.7602 58.0494 16.8922 57.624 17.1562C57.1987 17.4202 56.876 17.8235 56.656 18.3662C56.436 18.8942 56.326 19.5688 56.326 20.3902C56.326 21.0942 56.4507 21.7175 56.7 22.2602C56.9494 22.7882 57.3014 23.1988 57.756 23.4922C58.2254 23.7855 58.7754 23.9322 59.406 23.9322C60.0954 23.9322 60.66 23.7928 61.1 23.5142C61.54 23.2355 61.8334 22.8322 61.98 22.3042H64.62C64.488 23.0815 64.18 23.7635 63.696 24.3502C63.212 24.9368 62.6034 25.3915 61.87 25.7142C61.1367 26.0222 60.3154 26.1762 59.406 26.1762Z" fill="#FB523B"/>
<path d="M65.0783 14.9122H67.8063L70.3803 22.5682L72.9323 14.9122H75.7043L71.6563 26.0002H69.1263L65.0783 14.9122Z" fill="#FB523B"/>
<path d="M81.4495 26.1762C80.3495 26.1762 79.4035 25.9342 78.6115 25.4502C77.8195 24.9662 77.2108 24.2988 76.7855 23.4482C76.3748 22.5828 76.1695 21.5855 76.1695 20.4562C76.1695 19.3268 76.3748 18.3368 76.7855 17.4862C77.2108 16.6208 77.8121 15.9462 78.5895 15.4622C79.3815 14.9782 80.3201 14.7362 81.4055 14.7362C82.1095 14.7362 82.7475 14.8755 83.3195 15.1542C83.8915 15.4328 84.3388 15.7995 84.6615 16.2542V10.1602H87.3455V26.0002H84.6615V24.6142C84.3388 25.0982 83.8841 25.4795 83.2975 25.7582C82.7255 26.0368 82.1095 26.1762 81.4495 26.1762ZM81.8235 23.8442C82.4248 23.8442 82.9528 23.7048 83.4075 23.4262C83.8621 23.1475 84.2141 22.7515 84.4635 22.2382C84.7128 21.7248 84.8375 21.1308 84.8375 20.4562C84.8375 19.4295 84.5588 18.6082 84.0015 17.9922C83.4588 17.3762 82.7328 17.0682 81.8235 17.0682C81.2368 17.0682 80.7161 17.2075 80.2615 17.4862C79.8215 17.7648 79.4768 18.1608 79.2275 18.6742C78.9781 19.1875 78.8535 19.7815 78.8535 20.4562C78.8535 21.4828 79.1248 22.3042 79.6675 22.9202C80.2101 23.5362 80.9288 23.8442 81.8235 23.8442Z" fill="#FB523B"/>
<path d="M94.8783 26.1762C93.705 26.1762 92.693 25.9048 91.8423 25.3622C90.9916 24.8195 90.339 24.1082 89.8843 23.2282C89.4443 22.3482 89.2243 21.4095 89.2243 20.4122C89.2243 19.4002 89.4296 18.4688 89.8403 17.6182C90.2656 16.7528 90.8816 16.0562 91.6883 15.5282C92.5096 15.0002 93.4996 14.7362 94.6583 14.7362C95.8316 14.7362 96.8216 14.9928 97.6283 15.5062C98.4496 16.0048 99.051 16.6648 99.4323 17.4862C99.8283 18.2928 100.026 19.1582 100.026 20.0822C100.026 20.3902 100.012 20.6982 99.9823 21.0062H90.7863V19.2242H97.3423C97.2983 18.4908 97.0343 17.8968 96.5503 17.4422C96.0663 16.9875 95.4356 16.7602 94.6583 16.7602C94.0423 16.7602 93.5216 16.8922 93.0963 17.1562C92.671 17.4202 92.3483 17.8235 92.1283 18.3662C91.9083 18.8942 91.7983 19.5688 91.7983 20.3902C91.7983 21.0942 91.923 21.7175 92.1723 22.2602C92.4216 22.7882 92.7736 23.1988 93.2283 23.4922C93.6976 23.7855 94.2476 23.9322 94.8783 23.9322C95.5676 23.9322 96.1323 23.7928 96.5723 23.5142C97.0123 23.2355 97.3056 22.8322 97.4523 22.3042H100.092C99.9603 23.0815 99.6523 23.7635 99.1683 24.3502C98.6843 24.9368 98.0756 25.3915 97.3423 25.7142C96.609 26.0222 95.7876 26.1762 94.8783 26.1762Z" fill="#FB523B"/>
<path d="M105.867 26.1762C104.987 26.1762 104.202 26.0222 103.513 25.7142C102.838 25.3915 102.303 24.9442 101.907 24.3722C101.511 23.7855 101.291 23.0962 101.247 22.3042H103.711C103.77 22.8322 103.99 23.2502 104.371 23.5582C104.767 23.8662 105.266 24.0202 105.867 24.0202C106.38 24.0202 106.798 23.9102 107.121 23.6902C107.444 23.4555 107.605 23.1695 107.605 22.8322C107.605 22.4948 107.51 22.2382 107.319 22.0622C107.128 21.8715 106.879 21.7395 106.571 21.6662C106.278 21.5782 105.867 21.4902 105.339 21.4022C104.547 21.2848 103.894 21.1382 103.381 20.9622C102.882 20.7715 102.45 20.4488 102.083 19.9942C101.731 19.5395 101.555 18.8868 101.555 18.0362C101.555 17.3908 101.724 16.8188 102.061 16.3202C102.413 15.8215 102.89 15.4328 103.491 15.1542C104.092 14.8755 104.767 14.7362 105.515 14.7362C106.38 14.7362 107.143 14.8828 107.803 15.1762C108.478 15.4695 109.006 15.8875 109.387 16.4302C109.768 16.9728 109.981 17.6035 110.025 18.3222H107.539C107.48 17.8235 107.26 17.4422 106.879 17.1782C106.498 16.8995 106.065 16.7602 105.581 16.7602C105.097 16.7602 104.708 16.8702 104.415 17.0902C104.136 17.2955 103.997 17.5815 103.997 17.9482C103.997 18.2562 104.092 18.4982 104.283 18.6742C104.474 18.8355 104.716 18.9528 105.009 19.0262C105.302 19.0848 105.706 19.1582 106.219 19.2462C107.026 19.3488 107.686 19.4882 108.199 19.6642C108.727 19.8255 109.182 20.1482 109.563 20.6322C109.944 21.1015 110.135 21.7982 110.135 22.7222C110.135 23.4115 109.959 24.0202 109.607 24.5482C109.255 25.0762 108.756 25.4795 108.111 25.7582C107.466 26.0368 106.718 26.1762 105.867 26.1762Z" fill="#FB523B"/>
<path d="M114.287 19.4002L118.995 14.9122H122.427L114.243 22.8102L114.287 19.4002ZM112.043 10.1602H114.771V26.0002H112.043V10.1602ZM115.585 20.3682L117.609 18.8502L122.801 26.0002H119.545L115.585 20.3682Z" fill="#FB523B"/>
<defs>
<clipPath id="clip0_2190_29434">
<rect width="36" height="36" rx="10" fill="white"/>
</clipPath>
</defs>
</svg>
